STARTFONT 2.1
FONT -Gww-Caslon-Roman-R-Normal--25-240-75-75-P-122-ISO8859-1
SIZE 24 75 75
FONTBOUNDINGBOX 34 22 -1 -5
COMMENT "These bitmaps may be used freely"
COMMENT "This program is free software; you can redistribute it and/or modify"
COMMENT Copyright (C) 1992-2001 by George Williams
COMMENT 
COMMENT Redistribution and use in source and binary forms, with or without
COMMENT modification, are permitted provided that the following conditions are met:
COMMENT 
COMMENT Redistributions of source code must retain the above copyright notice, this
COMMENT list of conditions and the following disclaimer.
COMMENT 
COMMENT Redistributions in binary form must reproduce the above copyright notice,
COMMENT this list of conditions and the following disclaimer in the documentation
COMMENT and/or other materials provided with the distribution.
COMMENT 
COMMENT The name of the author may not be used to endorse or promote products
COMMENT derived from this software without specific prior written permission.
COMMENT 
COMMENT THIS SOFTWARE IS PROVIDED BY THE AUTHOR ``AS IS'' AND ANY EXPRESS OR IMPLIED
COMMENT WARRANTIES, INCLUDING, BUT NOT LIMITED TO, THE IMPLIED WARRANTIES OF
COMMENT MERCHANTABILITY AND FITNESS FOR A PARTICULAR PURPOSE ARE DISCLAIMED. IN NO
COMMENT EVENT SHALL THE AUTHOR BE LIABLE FOR ANY DIRECT, INDIRECT, INCIDENTAL,
COMMENT SPECIAL, EXEMPLARY, OR CONSEQUENTIAL DAMAGES (INCLUDING, BUT NOT LIMITED TO,
COMMENT PROCUREMENT OF SUBSTITUTE GOODS OR SERVICES; LOSS OF USE, DATA, OR PROFITS;
COMMENT OR BUSINESS INTERRUPTION) HOWEVER CAUSED AND ON ANY THEORY OF LIABILITY,
COMMENT WHETHER IN CONTRACT, STRICT LIABILITY, OR TORT (INCLUDING NEGLIGENCE OR
COMMENT OTHERWISE) ARISING IN ANY WAY OUT OF THE USE OF THIS SOFTWARE, EVEN IF
COMMENT ADVISED OF THE POSSIBILITY OF SUCH DAMAGE.
STARTPROPERTIES 24
FONT_ASCENT 17
FONT_DESCENT 5
QUAD_WIDTH 25
X_HEIGHT 12
CAP_HEIGHT 17
FONTNAME_REGISTRY ""
FAMILY_NAME "Caslon"
FOUNDRY "GWW"
WEIGHT_NAME "Roman"
SETWIDTH_NAME "Normal"
SLANT "R"
ADD_STYLE_NAME ""
PIXEL_SIZE 25
POINT_SIZE 240
RESOLUTION_X 75
RESOLUTION_Y 75
RESOLUTION 75
SPACING "P"
AVERAGE_WIDTH 122
CHARSET_REGISTRY "ISO8859"
CHARSET_ENCODING "1"
CHARSET_COLLECTIONS "ASCII ISO8859-1"
FULL_NAME "CaslonRoman-1"
Copyright "The programs to draw the splines of this font are Copyright © 1992-1999 by George Williams."
ENDPROPERTIES
CHARS 216
STARTCHAR space
ENCODING 32
SWIDTH 236 0
DWIDTH 6 0
BBX 0 0 0 0
BITMAP
ENDCHAR
STARTCHAR exclam
ENCODING 33
SWIDTH 217 0
DWIDTH 5 0
BBX 4 17 1 0
BITMAP
60
60
f0
f0
f0
f0
f0
60
60
60
60
60
00
00
00
60
60
ENDCHAR
STARTCHAR quotedbl
ENCODING 34
SWIDTH 244 0
DWIDTH 6 0
BBX 3 4 2 13
BITMAP
a0
a0
a0
a0
ENDCHAR
STARTCHAR numbersign
ENCODING 35
SWIDTH 498 0
DWIDTH 12 0
BBX 12 15 0 1
BITMAP
0880
0880
0880
0880
7ff0
1100
1100
1100
1100
1100
ffe0
2200
2200
2200
2200
ENDCHAR
STARTCHAR dollar
ENCODING 36
SWIDTH 573 0
DWIDTH 14 0
BBX 12 20 1 -3
BITMAP
0480
1f80
25e0
4520
8900
c900
c900
7900
3f00
0fc0
0ae0
1260
1230
1220
9220
d440
7d80
2600
2400
2400
ENDCHAR
STARTCHAR percent
ENCODING 37
SWIDTH 1017 0
DWIDTH 25 0
BBX 22 18 1 0
BITMAP
3f0040
738080
e1c100
c0c100
c0c200
c0c400
c0c800
c0d000
e1d3f0
61a618
3f4e1c
008c0c
008c0c
010c0c
020c0c
040e1c
080618
0803f0
ENDCHAR
STARTCHAR ampersand
ENCODING 38
SWIDTH 900 0
DWIDTH 22 0
BBX 0 0 0 0
BITMAP
ENDCHAR
STARTCHAR quotesingle
ENCODING 39
SWIDTH 220 0
DWIDTH 5 0
BBX 3 5 1 11
BITMAP
e0
e0
60
60
c0
ENDCHAR
STARTCHAR parenleft
ENCODING 40
SWIDTH 354 0
DWIDTH 9 0
BBX 6 22 1 -5
BITMAP
04
08
18
30
60
60
c0
c0
c0
c0
c0
c0
c0
c0
c0
c0
60
60
30
18
08
04
ENDCHAR
STARTCHAR parenright
ENCODING 41
SWIDTH 354 0
DWIDTH 9 0
BBX 6 22 1 -5
BITMAP
80
40
60
30
18
18
0c
0c
0c
0c
0c
0c
0c
0c
0c
0c
18
18
30
60
40
80
ENDCHAR
STARTCHAR asterisk
ENCODING 42
SWIDTH 462 0
DWIDTH 12 0
BBX 7 9 2 3
BITMAP
10
10
92
54
38
54
92
10
10
ENDCHAR
STARTCHAR plus
ENCODING 43
SWIDTH 354 0
DWIDTH 9 0
BBX 7 7 1 3
BITMAP
10
10
10
fe
10
10
10
ENDCHAR
STARTCHAR comma
ENCODING 44
SWIDTH 233 0
DWIDTH 6 0
BBX 4 5 0 -3
BITMAP
70
70
30
60
c0
ENDCHAR
STARTCHAR hyphen
ENCODING 45
SWIDTH 391 0
DWIDTH 10 0
BBX 7 1 0 5
BITMAP
fe
ENDCHAR
STARTCHAR period
ENCODING 46
SWIDTH 220 0
DWIDTH 5 0
BBX 3 3 1 0
BITMAP
e0
e0
e0
ENDCHAR
STARTCHAR slash
ENCODING 47
SWIDTH 536 0
DWIDTH 13 0
BBX 9 15 3 0
BITMAP
0180
0180
0300
0300
0600
0600
0c00
1c00
1800
3000
3000
6000
6000
c000
c000
ENDCHAR
STARTCHAR zero
ENCODING 48
SWIDTH 494 0
DWIDTH 12 0
BBX 10 15 1 0
BITMAP
1e00
7380
6180
e1c0
c0c0
c0c0
c0c0
c0c0
c0c0
c0c0
c0c0
e1c0
6180
7380
1e00
ENDCHAR
STARTCHAR one
ENCODING 49
SWIDTH 299 0
DWIDTH 7 0
BBX 6 15 1 0
BITMAP
10
70
30
30
30
30
30
30
30
30
30
30
30
30
fc
ENDCHAR
STARTCHAR two
ENCODING 50
SWIDTH 409 0
DWIDTH 10 0
BBX 8 15 1 0
BITMAP
7c
c6
83
83
03
06
06
0c
18
30
60
c0
c1
ff
ff
ENDCHAR
STARTCHAR three
ENCODING 51
SWIDTH 465 0
DWIDTH 12 0
BBX 8 14 2 0
BITMAP
7c
ce
86
06
0c
1c
3e
07
03
03
e3
e3
c6
7c
ENDCHAR
STARTCHAR four
ENCODING 52
SWIDTH 528 0
DWIDTH 13 0
BBX 11 15 0 0
BITMAP
0040
00c0
01c0
03c0
06c0
06c0
0cc0
0cc0
18c0
30c0
7fc0
ffe0
00c0
00c0
00c0
ENDCHAR
STARTCHAR five
ENCODING 53
SWIDTH 441 0
DWIDTH 11 0
BBX 8 16 2 0
BITMAP
02
fe
fc
80
80
80
80
f8
fe
06
03
03
c3
c2
86
7c
ENDCHAR
STARTCHAR six
ENCODING 54
SWIDTH 448 0
DWIDTH 11 0
BBX 9 15 1 0
BITMAP
0c00
1800
3000
6000
6000
de00
f300
e180
c180
c180
c180
c180
c180
6300
3e00
ENDCHAR
STARTCHAR seven
ENCODING 55
SWIDTH 463 0
DWIDTH 12 0
BBX 8 15 2 0
BITMAP
ff
ff
83
83
02
06
06
0c
0c
0c
0c
18
18
18
18
ENDCHAR
STARTCHAR eight
ENCODING 56
SWIDTH 472 0
DWIDTH 12 0
BBX 9 15 1 0
BITMAP
1c00
3600
6300
6300
6300
3600
1c00
3e00
6700
c380
c180
c180
c180
6300
3e00
ENDCHAR
STARTCHAR nine
ENCODING 57
SWIDTH 449 0
DWIDTH 11 0
BBX 9 15 1 0
BITMAP
1c00
7600
6300
c180
c180
c180
c180
c380
6780
3d80
0300
0300
0600
0600
1800
ENDCHAR
STARTCHAR colon
ENCODING 58
SWIDTH 220 0
DWIDTH 5 0
BBX 2 8 2 0
BITMAP
c0
c0
c0
00
00
c0
c0
c0
ENDCHAR
STARTCHAR semicolon
ENCODING 59
SWIDTH 220 0
DWIDTH 5 0
BBX 4 11 0 -3
BITMAP
70
70
70
00
00
00
70
70
30
60
c0
ENDCHAR
STARTCHAR less
ENCODING 60
SWIDTH 591 0
DWIDTH 15 0
BBX 11 9 1 2
BITMAP
0060
0180
0600
1800
e000
1800
0600
0180
0060
ENDCHAR
STARTCHAR equal
ENCODING 61
SWIDTH 392 0
DWIDTH 9 0
BBX 7 6 1 4
BITMAP
fe
fe
00
00
fe
fe
ENDCHAR
STARTCHAR greater
ENCODING 62
SWIDTH 586 0
DWIDTH 15 0
BBX 10 9 3 2
BITMAP
c000
3000
0c00
0300
00c0
0300
0c00
3000
c000
ENDCHAR
STARTCHAR question
ENCODING 63
SWIDTH 419 0
DWIDTH 10 0
BBX 8 18 1 0
BITMAP
78
fc
63
01
01
02
3e
78
70
20
20
20
20
00
00
20
70
20
ENDCHAR
STARTCHAR at
ENCODING 64
SWIDTH 808 0
DWIDTH 20 0
BBX 17 18 1 0
BITMAP
07f800
0e0e00
180700
300300
61e980
e77980
ce3980
ce3980
ce3980
ce3980
ce3980
ce3980
c7ef00
e3c000
700000
380380
1e0e00
07fc00
ENDCHAR
STARTCHAR A
ENCODING 65
SWIDTH 732 0
DWIDTH 18 0
BBX 17 17 0 0
BITMAP
004000
00c000
00e000
00e000
016000
013000
023000
023000
03f800
041800
041800
080c00
080c00
080c00
100600
300600
fc0f80
ENDCHAR
STARTCHAR B
ENCODING 66
SWIDTH 553 0
DWIDTH 14 0
BBX 12 17 1 0
BITMAP
ffc0
3060
3030
3030
3030
3060
30e0
3fc0
3060
3030
3030
3030
3030
3030
3070
30e0
ff80
ENDCHAR
STARTCHAR C
ENCODING 67
SWIDTH 601 0
DWIDTH 15 0
BBX 14 17 1 0
BITMAP
07c8
1838
3018
6008
6008
c008
c000
c000
c000
c000
c000
c004
6004
6008
3018
1838
0fc8
ENDCHAR
STARTCHAR D
ENCODING 68
SWIDTH 650 0
DWIDTH 16 0
BBX 14 17 1 0
BITMAP
ffe0
3030
3018
3018
300c
300c
300c
300c
300c
300c
300c
300c
3018
3018
3030
3060
ff80
ENDCHAR
STARTCHAR E
ENCODING 69
SWIDTH 584 0
DWIDTH 15 0
BBX 13 17 1 0
BITMAP
fff0
3038
3018
3018
3088
3080
3180
3f80
3180
3080
3080
3000
3008
3018
3018
3038
fff0
ENDCHAR
STARTCHAR F
ENCODING 70
SWIDTH 556 0
DWIDTH 14 0
BBX 13 17 0 0
BITMAP
fff0
3830
3010
3008
3048
3040
3040
3fc0
30c0
3040
3040
3000
3000
3000
3000
3000
fc00
ENDCHAR
STARTCHAR G
ENCODING 71
SWIDTH 610 0
DWIDTH 15 0
BBX 13 17 1 0
BITMAP
0f90
3870
7030
6010
e010
c000
c000
c000
c078
c030
c030
c030
e030
6030
7030
3860
0fc0
ENDCHAR
STARTCHAR H
ENCODING 72
SWIDTH 695 0
DWIDTH 17 0
BBX 16 17 1 0
BITMAP
fc3f
300c
300c
300c
300c
300c
300c
300c
3ffc
300c
300c
300c
300c
300c
300c
300c
fc3f
ENDCHAR
STARTCHAR I
ENCODING 73
SWIDTH 297 0
DWIDTH 7 0
BBX 6 17 0 0
BITMAP
fc
30
30
30
30
30
30
30
30
30
30
30
30
30
30
30
fc
ENDCHAR
STARTCHAR J
ENCODING 74
SWIDTH 327 0
DWIDTH 8 0
BBX 8 20 1 -3
BITMAP
3f
0c
0c
0c
0c
0c
0c
0c
0c
0c
0c
0c
0c
0c
0c
0c
0c
ec
f8
70
ENDCHAR
STARTCHAR K
ENCODING 75
SWIDTH 662 0
DWIDTH 17 0
BBX 15 17 0 0
BITMAP
fcfc
3030
3020
3040
3080
3100
3200
3600
3b00
3180
30c0
30c0
3060
3030
3030
3018
fc3e
ENDCHAR
STARTCHAR L
ENCODING 76
SWIDTH 567 0
DWIDTH 14 0
BBX 13 17 0 0
BITMAP
fc00
3000
3000
3000
3000
3000
3000
3000
3000
3000
3000
3000
3008
3008
3018
3038
fff0
ENDCHAR
STARTCHAR M
ENCODING 77
SWIDTH 867 0
DWIDTH 22 0
BBX 18 17 2 0
BITMAP
f801c0
380100
380300
2c0300
2c0300
2c0500
260500
260900
260900
230900
231100
231100
219100
21a100
20a100
20c100
f8c7c0
ENDCHAR
STARTCHAR N
ENCODING 78
SWIDTH 730 0
DWIDTH 18 0
BBX 16 17 2 0
BITMAP
f01f
3804
3804
2c04
2604
2604
2304
2184
2184
20c4
2064
2064
2034
2034
201c
200c
f80c
ENDCHAR
STARTCHAR O
ENCODING 79
SWIDTH 710 0
DWIDTH 18 0
BBX 14 17 2 0
BITMAP
0fc0
3870
7038
6018
c00c
c00c
c00c
c00c
c00c
c00c
c00c
c00c
c00c
6018
7038
3870
0fc0
ENDCHAR
STARTCHAR P
ENCODING 80
SWIDTH 491 0
DWIDTH 12 0
BBX 11 17 0 0
BITMAP
ffc0
1860
1860
1860
1860
1860
18c0
1f80
1800
1800
1800
1800
1800
1800
1800
1800
fe00
ENDCHAR
STARTCHAR Q
ENCODING 81
SWIDTH 710 0
DWIDTH 18 0
BBX 14 20 2 -3
BITMAP
0fc0
3870
7038
6018
c00c
c00c
c00c
c00c
c00c
c00c
c00c
c00c
c00c
c00c
6018
7038
3870
1f88
33f0
10e0
ENDCHAR
STARTCHAR R
ENCODING 82
SWIDTH 627 0
DWIDTH 16 0
BBX 15 17 0 0
BITMAP
ffc0
3060
3060
3060
3060
3060
30c0
3f00
3180
30c0
30c0
3060
3060
3030
3030
3018
fc0e
ENDCHAR
STARTCHAR S
ENCODING 83
SWIDTH 502 0
DWIDTH 13 0
BBX 11 17 1 0
BITMAP
3e40
61c0
c0c0
c040
c040
c000
6000
3800
1e00
0780
01c0
8060
8060
8060
c060
e0c0
9f00
ENDCHAR
STARTCHAR T
ENCODING 84
SWIDTH 741 0
DWIDTH 19 0
BBX 16 17 1 0
BITMAP
7ffe
6186
c183
8181
0180
0180
0180
0180
0180
0180
0180
0180
0180
0180
0180
0180
07e0
ENDCHAR
STARTCHAR U
ENCODING 85
SWIDTH 656 0
DWIDTH 16 0
BBX 15 17 1 0
BITMAP
fc3e
3008
3008
3008
3008
3008
3008
3008
3008
3008
3008
3008
3008
3018
3010
1830
0fe0
ENDCHAR
STARTCHAR V
ENCODING 86
SWIDTH 704 0
DWIDTH 18 0
BBX 16 17 2 0
BITMAP
f83f
700e
300c
3008
3818
1810
1810
1c30
0c20
0c60
0e60
0640
06c0
06c0
0380
0380
0300
ENDCHAR
STARTCHAR W
ENCODING 87
SWIDTH 1022 0
DWIDTH 26 0
BBX 24 17 1 0
BITMAP
f8f83f
70700c
70300c
303008
383818
181810
183810
1c3c30
0c2c20
0c6e60
0e4640
064640
06c6c0
078380
038380
038100
030100
ENDCHAR
STARTCHAR X
ENCODING 88
SWIDTH 662 0
DWIDTH 17 0
BBX 15 17 1 0
BITMAP
7c7e
3838
1830
0c20
0e60
06c0
03c0
0380
0180
03c0
06c0
06e0
0c70
0830
1838
3818
fc7e
ENDCHAR
STARTCHAR Y
ENCODING 89
SWIDTH 653 0
DWIDTH 16 0
BBX 15 17 1 0
BITMAP
f87e
7018
3010
1820
1840
0c40
0680
0700
0300
0300
0300
0300
0300
0300
0300
0300
0fc0
ENDCHAR
STARTCHAR Z
ENCODING 90
SWIDTH 582 0
DWIDTH 15 0
BBX 13 17 1 0
BITMAP
3ff0
3830
6060
4060
40c0
0180
0180
0300
0600
0600
0c00
0c00
1808
3010
3030
6060
ffe0
ENDCHAR
STARTCHAR bracketleft
ENCODING 91
SWIDTH 361 0
DWIDTH 9 0
BBX 7 22 1 -5
BITMAP
fe
c0
c0
c0
c0
c0
c0
c0
c0
c0
c0
c0
c0
c0
c0
c0
c0
c0
c0
c0
c0
fe
ENDCHAR
STARTCHAR backslash
ENCODING 92
SWIDTH 462 0
DWIDTH 12 0
BBX 9 16 1 -1
BITMAP
c000
c000
6000
6000
3000
3000
1800
1800
0c00
0c00
0600
0600
0300
0300
0180
0180
ENDCHAR
STARTCHAR bracketright
ENCODING 93
SWIDTH 361 0
DWIDTH 9 0
BBX 6 22 1 -5
BITMAP
fc
0c
0c
0c
0c
0c
0c
0c
0c
0c
0c
0c
0c
0c
0c
0c
0c
0c
0c
0c
0c
fc
ENDCHAR
STARTCHAR asciicircum
ENCODING 94
SWIDTH 409 0
DWIDTH 10 0
BBX 9 5 1 9
BITMAP
0800
1c00
3600
6300
c180
ENDCHAR
STARTCHAR underscore
ENCODING 95
SWIDTH 565 0
DWIDTH 14 0
BBX 14 1 0 -5
BITMAP
fffc
ENDCHAR
STARTCHAR grave
ENCODING 96
SWIDTH 321 0
DWIDTH 8 0
BBX 3 2 2 16
BITMAP
c0
20
ENDCHAR
STARTCHAR a
ENCODING 97
SWIDTH 400 0
DWIDTH 10 0
BBX 10 12 0 0
BITMAP
1e00
2700
6300
4300
0300
0f00
3300
6300
c300
c300
e740
7980
ENDCHAR
STARTCHAR b
ENCODING 98
SWIDTH 489 0
DWIDTH 12 0
BBX 11 17 0 0
BITMAP
2000
e000
6000
6000
6000
6f00
7180
60c0
6060
6060
6060
6060
6060
6060
60c0
70c0
4f00
ENDCHAR
STARTCHAR c
ENCODING 99
SWIDTH 424 0
DWIDTH 11 0
BBX 9 12 1 0
BITMAP
1e00
6300
6300
c300
c000
c000
c000
c000
c080
e100
7e00
3c00
ENDCHAR
STARTCHAR d
ENCODING 100
SWIDTH 487 0
DWIDTH 12 0
BBX 10 17 1 0
BITMAP
0080
0380
0180
0180
0180
1f80
3180
6180
e180
c180
c180
c180
c180
c180
e180
61c0
3e80
ENDCHAR
STARTCHAR e
ENCODING 101
SWIDTH 457 0
DWIDTH 11 0
BBX 9 12 1 0
BITMAP
3e00
6300
e180
c180
ff80
c000
c000
c000
c080
e180
7f00
3e00
ENDCHAR
STARTCHAR f
ENCODING 102
SWIDTH 272 0
DWIDTH 7 0
BBX 6 17 0 0
BITMAP
1c
34
30
30
30
30
78
30
30
30
30
30
30
30
30
30
fc
ENDCHAR
STARTCHAR g
ENCODING 103
SWIDTH 457 0
DWIDTH 11 0
BBX 10 17 1 -5
BITMAP
1d80
3780
6300
6300
6300
6300
6600
3c00
6000
e000
7e00
4780
80c0
80c0
c1c0
ff80
7f00
ENDCHAR
STARTCHAR h
ENCODING 104
SWIDTH 510 0
DWIDTH 13 0
BBX 12 17 0 0
BITMAP
1000
7000
3000
3000
3000
3780
38c0
30c0
30c0
30c0
30c0
30c0
30c0
30c0
30c0
30c0
fdf0
ENDCHAR
STARTCHAR i
ENCODING 105
SWIDTH 262 0
DWIDTH 7 0
BBX 6 16 0 0
BITMAP
30
30
00
00
00
10
70
30
30
30
30
30
30
30
30
fc
ENDCHAR
STARTCHAR j
ENCODING 106
SWIDTH 287 0
DWIDTH 7 0
BBX 5 20 0 -4
BITMAP
18
18
00
00
08
38
18
18
18
18
18
18
18
18
18
18
18
d8
f0
60
ENDCHAR
STARTCHAR k
ENCODING 107
SWIDTH 526 0
DWIDTH 13 0
BBX 13 17 0 0
BITMAP
1000
7000
3000
3000
3000
33f8
30e0
30c0
3100
3200
3600
3b00
3300
3180
30c0
30e0
fdf0
ENDCHAR
STARTCHAR l
ENCODING 108
SWIDTH 262 0
DWIDTH 7 0
BBX 6 17 0 0
BITMAP
10
70
30
30
30
30
30
30
30
30
30
30
30
30
30
30
fc
ENDCHAR
STARTCHAR m
ENCODING 109
SWIDTH 785 0
DWIDTH 20 0
BBX 19 12 0 0
BITMAP
178f00
78f180
306180
306180
306180
306180
306180
306180
306180
306180
306180
f9fbe0
ENDCHAR
STARTCHAR n
ENCODING 110
SWIDTH 510 0
DWIDTH 13 0
BBX 13 12 0 0
BITMAP
1780
78c0
3060
3060
3060
3060
3060
3060
3060
3060
3060
fdf8
ENDCHAR
STARTCHAR o
ENCODING 111
SWIDTH 482 0
DWIDTH 12 0
BBX 10 12 1 0
BITMAP
3f00
6180
e1c0
c0c0
c0c0
c0c0
c0c0
c0c0
c0c0
e1c0
6180
3f00
ENDCHAR
STARTCHAR p
ENCODING 112
SWIDTH 524 0
DWIDTH 13 0
BBX 12 16 0 -4
BITMAP
1780
78c0
3060
3060
3030
3030
3030
3030
3060
3060
38c0
3780
3000
3000
3000
fc00
ENDCHAR
STARTCHAR q
ENCODING 113
SWIDTH 440 0
DWIDTH 11 0
BBX 10 16 1 -4
BITMAP
1c80
6380
e180
c180
c180
c180
c180
c180
c180
e180
6180
3f80
0180
0180
0180
01c0
ENDCHAR
STARTCHAR r
ENCODING 114
SWIDTH 345 0
DWIDTH 9 0
BBX 8 12 0 0
BITMAP
17
7b
30
30
30
30
30
30
30
30
30
fc
ENDCHAR
STARTCHAR s
ENCODING 115
SWIDTH 385 0
DWIDTH 10 0
BBX 7 12 1 0
BITMAP
3c
62
c2
c2
e0
78
1c
0e
86
86
c6
7c
ENDCHAR
STARTCHAR t
ENCODING 116
SWIDTH 265 0
DWIDTH 7 0
BBX 5 14 1 0
BITMAP
20
60
e0
f0
60
60
60
60
60
60
60
60
68
30
ENDCHAR
STARTCHAR u
ENCODING 117
SWIDTH 524 0
DWIDTH 13 0
BBX 12 12 0 0
BITMAP
f1e0
3060
3060
3060
3060
3060
3060
3060
3060
3060
30f0
1f40
ENDCHAR
STARTCHAR v
ENCODING 118
SWIDTH 465 0
DWIDTH 12 0
BBX 11 12 1 0
BITMAP
f3e0
6180
6180
3100
3100
3200
1a00
1a00
1c00
0c00
0800
0800
ENDCHAR
STARTCHAR w
ENCODING 119
SWIDTH 629 0
DWIDTH 16 0
BBX 16 12 0 0
BITMAP
f79f
630c
738c
318c
3188
39d8
1bd8
1ad0
1ef0
0e70
0c60
0c60
ENDCHAR
STARTCHAR x
ENCODING 120
SWIDTH 481 0
DWIDTH 12 0
BBX 11 12 0 0
BITMAP
fbe0
3980
1900
1f00
0e00
0e00
0e00
0f00
1b80
1180
31c0
fbe0
ENDCHAR
STARTCHAR y
ENCODING 121
SWIDTH 440 0
DWIDTH 11 0
BBX 11 14 0 -2
BITMAP
f3e0
60c0
3080
3080
3100
1900
1a00
1a00
0c00
0c00
0800
0800
6800
7000
ENDCHAR
STARTCHAR z
ENCODING 122
SWIDTH 404 0
DWIDTH 10 0
BBX 8 12 1 0
BITMAP
7f
43
86
8c
0c
18
18
30
60
61
c2
fe
ENDCHAR
STARTCHAR braceleft
ENCODING 123
SWIDTH 346 0
DWIDTH 9 0
BBX 6 22 2 -5
BITMAP
1c
30
60
60
60
60
60
60
60
60
c0
c0
60
60
60
60
60
60
60
60
30
1c
ENDCHAR
STARTCHAR bar
ENCODING 124
SWIDTH 155 0
DWIDTH 4 0
BBX 2 18 1 0
BITMAP
c0
c0
c0
c0
c0
c0
c0
c0
c0
c0
c0
c0
c0
c0
c0
c0
c0
c0
ENDCHAR
STARTCHAR braceright
ENCODING 125
SWIDTH 346 0
DWIDTH 9 0
BBX 6 22 1 -5
BITMAP
e0
30
18
18
18
18
18
18
18
18
1c
1c
18
18
18
18
18
18
18
18
30
e0
ENDCHAR
STARTCHAR asciitilde
ENCODING 126
SWIDTH 409 0
DWIDTH 10 0
BBX 7 3 2 12
BITMAP
72
fe
9c
ENDCHAR
STARTCHAR Euro
ENCODING 128
SWIDTH 658 0
DWIDTH 16 0
BBX 14 17 1 0
BITMAP
03e0
0c10
1808
1000
3000
2000
6000
fff8
6000
fff0
6000
6000
3000
3000
1804
0c18
03e0
ENDCHAR
STARTCHAR quotesinglbase
ENCODING 130
SWIDTH 203 0
DWIDTH 5 0
BBX 3 4 1 -2
BITMAP
e0
e0
60
c0
ENDCHAR
STARTCHAR florin
ENCODING 131
SWIDTH 272 0
DWIDTH 7 0
BBX 8 21 -1 -4
BITMAP
0e
1b
18
18
18
18
3c
18
18
18
18
18
18
18
18
18
18
18
18
d0
60
ENDCHAR
STARTCHAR quotedblbase
ENCODING 132
SWIDTH 315 0
DWIDTH 8 0
BBX 6 4 1 -2
BITMAP
cc
cc
44
88
ENDCHAR
STARTCHAR ellipsis
ENCODING 133
SWIDTH 614 0
DWIDTH 15 0
BBX 14 3 1 0
BITMAP
731c
f7bc
731c
ENDCHAR
STARTCHAR dagger
ENCODING 134
SWIDTH 373 0
DWIDTH 9 0
BBX 8 16 1 0
BITMAP
18
18
08
ff
08
18
18
18
18
18
18
18
18
18
08
08
ENDCHAR
STARTCHAR daggerdbl
ENCODING 135
SWIDTH 373 0
DWIDTH 9 0
BBX 8 19 1 -2
BITMAP
18
18
18
08
ff
08
18
18
18
00
18
18
18
08
ff
08
18
18
18
ENDCHAR
STARTCHAR circumflex
ENCODING 136
SWIDTH 0 0
DWIDTH 0 0
BBX 8 5 1 9
BITMAP
18
3c
7e
66
c3
ENDCHAR
STARTCHAR perthousand
ENCODING 137
SWIDTH 1483 0
DWIDTH 37 0
BBX 34 18 1 0
BITMAP
3f00400000
7380800000
e1c1000000
c0c1000000
c0c2000000
c0c4000000
c0c8000000
c0d0000000
e1d3f03f00
61a6186180
3f4e1ce1c0
008c0cc0c0
008c0cc0c0
010c0cc0c0
020c0cc0c0
040e1ce1c0
0806186180
0803f03f00
ENDCHAR
STARTCHAR Scaron
ENCODING 138
SWIDTH 502 0
DWIDTH 13 0
BBX 11 21 1 0
BITMAP
2200
1400
0800
0000
3e40
61c0
c0c0
c040
c040
c000
6000
3800
1e00
0780
01c0
8060
8060
8060
c060
e0c0
9f00
ENDCHAR
STARTCHAR guilsinglleft
ENCODING 139
SWIDTH 524 0
DWIDTH 13 0
BBX 11 12 1 2
BITMAP
0040
00c0
0380
0c00
3000
c000
e000
3800
0e00
0380
00c0
0020
ENDCHAR
STARTCHAR OE
ENCODING 140
SWIDTH 1006 0
DWIDTH 25 0
BBX 22 17 2 0
BITMAP
0ffff0
383838
601818
601808
c01804
c01844
c01840
c018c0
c01fc0
c018c0
c01840
c01800
c01804
601808
601808
383838
0ffff0
ENDCHAR
STARTCHAR quoteleft
ENCODING 145
SWIDTH 220 0
DWIDTH 5 0
BBX 3 5 1 11
BITMAP
60
e0
e0
e0
e0
ENDCHAR
STARTCHAR quoteright
ENCODING 146
SWIDTH 220 0
DWIDTH 5 0
BBX 3 5 1 11
BITMAP
e0
e0
e0
e0
c0
ENDCHAR
STARTCHAR quotedblleft
ENCODING 147
SWIDTH 315 0
DWIDTH 8 0
BBX 5 5 1 11
BITMAP
48
d8
d8
d8
d8
ENDCHAR
STARTCHAR quotedblright
ENCODING 148
SWIDTH 315 0
DWIDTH 8 0
BBX 7 5 0 11
BITMAP
7e
7e
7e
66
dc
ENDCHAR
STARTCHAR bullet
ENCODING 149
SWIDTH 208 0
DWIDTH 5 0
BBX 4 4 1 4
BITMAP
f0
f0
f0
f0
ENDCHAR
STARTCHAR endash
ENCODING 150
SWIDTH 501 0
DWIDTH 13 0
BBX 13 1 0 5
BITMAP
fff8
ENDCHAR
STARTCHAR emdash
ENCODING 151
SWIDTH 1000 0
DWIDTH 25 0
BBX 22 1 1 5
BITMAP
fffffc
ENDCHAR
STARTCHAR tilde
ENCODING 152
SWIDTH 732 0
DWIDTH 18 0
BBX 5 2 8 18
BITMAP
e8
b8
ENDCHAR
STARTCHAR trademark
ENCODING 153
SWIDTH 699 0
DWIDTH 17 0
BBX 13 7 1 11
BITMAP
fb88
a588
2198
2158
2158
2138
23a8
ENDCHAR
STARTCHAR scaron
ENCODING 154
SWIDTH 385 0
DWIDTH 10 0
BBX 7 17 1 0
BITMAP
44
28
10
00
00
3c
62
c2
c2
e0
78
1c
0e
86
86
c6
7c
ENDCHAR
STARTCHAR guilsinglright
ENCODING 155
SWIDTH 572 0
DWIDTH 14 0
BBX 12 12 2 2
BITMAP
c000
f000
3c00
0f00
03c0
00f0
00e0
0380
0f00
3c00
f000
c000
ENDCHAR
STARTCHAR oe
ENCODING 156
SWIDTH 798 0
DWIDTH 20 0
BBX 18 12 1 0
BITMAP
1e1f00
333180
61e180
60c0c0
c0ffc0
c0c000
c0c000
c0c000
60e040
61f080
333f80
1e1f00
ENDCHAR
STARTCHAR Ydieresis
ENCODING 159
SWIDTH 653 0
DWIDTH 16 0
BBX 15 20 1 0
BITMAP
06c0
06c0
0000
f87e
7018
3030
1820
1840
0c40
0680
0700
0300
0300
0300
0300
0300
0300
0300
0300
0fc0
ENDCHAR
STARTCHAR uni00A0
ENCODING 160
SWIDTH 236 0
DWIDTH 6 0
BBX 0 0 0 0
BITMAP
ENDCHAR
STARTCHAR exclamdown
ENCODING 161
SWIDTH 217 0
DWIDTH 5 0
BBX 5 18 0 -1
BITMAP
20
70
20
00
00
20
20
20
70
70
70
70
f8
f8
f8
70
70
20
ENDCHAR
STARTCHAR cent
ENCODING 162
SWIDTH 481 0
DWIDTH 12 0
BBX 10 15 0 -2
BITMAP
0200
0f00
15c0
24c0
6400
c400
c400
c400
c800
6840
6880
3f80
1f00
0800
0800
ENDCHAR
STARTCHAR sterling
ENCODING 163
SWIDTH 611 0
DWIDTH 15 0
BBX 11 17 2 0
BITMAP
01e0
0220
0600
0600
0400
0c00
0c00
0800
1800
1800
7e00
1000
1000
2060
3c20
c720
83c0
ENDCHAR
STARTCHAR currency
ENCODING 164
SWIDTH 544 0
DWIDTH 14 0
BBX 10 10 1 3
BITMAP
bf40
7f80
e1c0
c0c0
c0c0
c0c0
c0c0
e1c0
7f80
bf40
ENDCHAR
STARTCHAR yen
ENCODING 165
SWIDTH 647 0
DWIDTH 16 0
BBX 15 17 1 0
BITMAP
f87e
3018
3010
1820
fffc
0c40
0680
fffc
0300
0300
0300
0300
0300
0300
0300
0300
0fc0
ENDCHAR
STARTCHAR brokenbar
ENCODING 166
SWIDTH 201 0
DWIDTH 5 0
BBX 2 18 1 0
BITMAP
c0
c0
c0
c0
c0
c0
c0
c0
00
00
c0
c0
c0
c0
c0
c0
c0
c0
ENDCHAR
STARTCHAR section
ENCODING 167
SWIDTH 359 0
DWIDTH 9 0
BBX 7 18 1 0
BITMAP
3c
66
c6
c0
c0
60
38
7c
ee
c6
ee
7c
18
0c
06
c6
cc
7c
ENDCHAR
STARTCHAR dieresis
ENCODING 168
SWIDTH 0 0
DWIDTH 0 0
BBX 6 2 2 13
BITMAP
cc
cc
ENDCHAR
STARTCHAR copyright
ENCODING 169
SWIDTH 539 0
DWIDTH 13 0
BBX 12 11 1 7
BITMAP
1f80
30c0
6f60
d130
d030
d030
d130
d330
6d60
30c0
1f80
ENDCHAR
STARTCHAR ordfeminine
ENCODING 170
SWIDTH 317 0
DWIDTH 8 0
BBX 7 10 0 3
BITMAP
38
4c
4c
1c
6c
cc
cc
76
00
fe
ENDCHAR
STARTCHAR guillemotleft
ENCODING 171
SWIDTH 827 0
DWIDTH 21 0
BBX 18 12 0 2
BITMAP
002040
00e1c0
038700
0e1c00
387000
e1c000
60c000
183000
0e1c00
038700
00e1c0
002040
ENDCHAR
STARTCHAR logicalnot
ENCODING 172
SWIDTH 638 0
DWIDTH 16 0
BBX 14 6 0 0
BITMAP
fffc
0004
0004
0004
0004
0004
ENDCHAR
STARTCHAR uni00AD
ENCODING 173
SWIDTH 340 0
DWIDTH 8 0
BBX 6 1 1 5
BITMAP
fc
ENDCHAR
STARTCHAR registered
ENCODING 174
SWIDTH 529 0
DWIDTH 13 0
BBX 12 13 1 6
BITMAP
0f00
1f80
30c0
6e60
6960
ce30
ca30
ca30
6960
6960
30c0
1f80
0f00
ENDCHAR
STARTCHAR macron
ENCODING 175
SWIDTH 315 0
DWIDTH 8 0
BBX 5 1 1 15
BITMAP
f8
ENDCHAR
STARTCHAR degree
ENCODING 176
SWIDTH 222 0
DWIDTH 6 0
BBX 5 5 0 11
BITMAP
70
d8
88
d8
70
ENDCHAR
STARTCHAR plusminus
ENCODING 177
SWIDTH 331 0
DWIDTH 8 0
BBX 7 6 0 5
BITMAP
10
10
fe
10
10
fe
ENDCHAR
STARTCHAR twosuperior
ENCODING 178
SWIDTH 272 0
DWIDTH 7 0
BBX 4 7 2 10
BITMAP
e0
90
20
40
80
80
f0
ENDCHAR
STARTCHAR threesuperior
ENCODING 179
SWIDTH 267 0
DWIDTH 7 0
BBX 4 7 2 10
BITMAP
c0
20
20
60
30
90
e0
ENDCHAR
STARTCHAR acute
ENCODING 180
SWIDTH 275 0
DWIDTH 7 0
BBX 3 2 2 16
BITMAP
60
80
ENDCHAR
STARTCHAR mu
ENCODING 181
SWIDTH 671 0
DWIDTH 17 0
BBX 13 15 1 -4
BITMAP
60c0
60c0
60c0
60c0
6180
6180
6180
e188
e188
d3f0
cfe0
c000
c000
c000
c000
ENDCHAR
STARTCHAR paragraph
ENCODING 182
SWIDTH 592 0
DWIDTH 15 0
BBX 13 19 1 -2
BITMAP
3ff8
f1b0
e1b0
e1b0
e1b0
e1b0
f1b0
3fb0
01b0
01b0
01b0
01b0
01b0
01b0
01b0
01b0
01b0
01b0
01b0
ENDCHAR
STARTCHAR periodcentered
ENCODING 183
SWIDTH 217 0
DWIDTH 5 0
BBX 3 3 2 5
BITMAP
e0
e0
e0
ENDCHAR
STARTCHAR cedilla
ENCODING 184
SWIDTH 0 0
DWIDTH 0 0
BBX 4 5 5 -5
BITMAP
e0
f0
10
f0
e0
ENDCHAR
STARTCHAR onesuperior
ENCODING 185
SWIDTH 227 0
DWIDTH 6 0
BBX 2 7 2 10
BITMAP
c0
c0
c0
c0
c0
c0
c0
ENDCHAR
STARTCHAR ordmasculine
ENCODING 186
SWIDTH 390 0
DWIDTH 9 0
BBX 7 10 1 3
BITMAP
7c
ee
c6
c6
c6
c6
ee
7c
00
fe
ENDCHAR
STARTCHAR guillemotright
ENCODING 187
SWIDTH 827 0
DWIDTH 21 0
BBX 19 12 0 2
BITMAP
c18000
f1e000
3c7800
0f1e00
03c780
00f1e0
00e1c0
038700
0f1e00
3c7800
f1e000
c18000
ENDCHAR
STARTCHAR onequarter
ENCODING 188
SWIDTH 419 0
DWIDTH 10 0
BBX 9 17 1 0
BITMAP
c800
4800
5000
5000
5000
5000
f000
1000
1000
2000
2100
2300
2300
2500
2900
5f80
4100
ENDCHAR
STARTCHAR onehalf
ENCODING 189
SWIDTH 385 0
DWIDTH 10 0
BBX 8 17 1 0
BITMAP
c8
48
50
50
50
50
f0
10
10
20
2e
29
21
22
24
49
4f
ENDCHAR
STARTCHAR threequarters
ENCODING 190
SWIDTH 488 0
DWIDTH 12 0
BBX 11 17 1 0
BITMAP
4200
a200
2400
6400
1400
9400
e400
0400
0800
0800
0840
08c0
0940
0a40
1240
17e0
1040
ENDCHAR
STARTCHAR questiondown
ENCODING 191
SWIDTH 419 0
DWIDTH 10 0
BBX 6 17 2 0
BITMAP
08
1c
08
00
08
08
08
08
08
3c
78
c0
80
80
84
fc
3c
ENDCHAR
STARTCHAR Agrave
ENCODING 192
SWIDTH 732 0
DWIDTH 18 0
BBX 16 20 1 0
BITMAP
0180
00c0
0020
0080
0180
01c0
0140
0260
0260
0230
0430
07f0
0818
0818
100c
100c
100c
2006
2006
f81f
ENDCHAR
STARTCHAR Aacute
ENCODING 193
SWIDTH 732 0
DWIDTH 18 0
BBX 16 20 1 0
BITMAP
0060
00c0
0100
0080
0180
01c0
0140
0260
0260
0230
0430
07f0
0818
0818
1018
100c
100c
2006
2006
f81f
ENDCHAR
STARTCHAR Acircumflex
ENCODING 194
SWIDTH 732 0
DWIDTH 18 0
BBX 16 20 1 0
BITMAP
0080
01c0
0220
0490
0180
01c0
0140
0260
0260
0230
0430
07f0
0818
0818
1008
100c
100c
2006
2006
f81f
ENDCHAR
STARTCHAR Atilde
ENCODING 195
SWIDTH 732 0
DWIDTH 18 0
BBX 16 20 1 0
BITMAP
01a0
02c0
0000
0080
0180
01c0
0140
0260
0260
0230
0430
07f0
0818
0818
1008
100c
100c
2006
2006
f81f
ENDCHAR
STARTCHAR Adieresis
ENCODING 196
SWIDTH 732 0
DWIDTH 18 0
BBX 16 20 1 0
BITMAP
0660
0660
0000
0080
0180
01c0
0140
0260
0260
0230
0430
07f0
0818
0818
1008
100c
100c
2006
2006
f81f
ENDCHAR
STARTCHAR Aring
ENCODING 197
SWIDTH 732 0
DWIDTH 18 0
BBX 16 20 1 0
BITMAP
0180
0240
0240
0180
0180
01c0
0140
0260
0260
0230
0430
07f0
0818
0818
1018
100c
100c
2006
2006
f81f
ENDCHAR
STARTCHAR AE
ENCODING 198
SWIDTH 888 0
DWIDTH 22 0
BBX 21 17 1 0
BITMAP
01ffe0
00e070
016030
016010
016088
026080
026180
07ff80
046180
086080
086080
106000
106008
106010
206010
206030
f9ffe0
ENDCHAR
STARTCHAR Ccedilla
ENCODING 199
SWIDTH 601 0
DWIDTH 16 0
BBX 14 22 1 -5
BITMAP
07c8
1838
3018
6008
6008
c008
c000
c000
c000
c000
c000
c004
6004
6008
3018
1838
0fc8
0300
03c0
0060
0060
07c0
ENDCHAR
STARTCHAR Egrave
ENCODING 200
SWIDTH 584 0
DWIDTH 15 0
BBX 13 20 1 0
BITMAP
0c00
0600
0100
ffe0
3070
3030
3010
3010
3080
3080
3f80
3180
3080
3080
3000
3008
3010
3010
3030
ffe0
ENDCHAR
STARTCHAR Eacute
ENCODING 201
SWIDTH 584 0
DWIDTH 15 0
BBX 13 20 1 0
BITMAP
0180
0300
0400
ffe0
3070
3030
3010
3010
3080
3080
3f80
3180
3080
3080
3000
3008
3010
3010
3030
ffe0
ENDCHAR
STARTCHAR Ecircumflex
ENCODING 202
SWIDTH 584 0
DWIDTH 15 0
BBX 13 20 1 0
BITMAP
0200
0500
0880
ffe0
3070
3030
3010
3010
3080
3080
3f80
3180
3080
3080
3000
3008
3010
3010
3030
ffe0
ENDCHAR
STARTCHAR Edieresis
ENCODING 203
SWIDTH 584 0
DWIDTH 15 0
BBX 13 20 1 0
BITMAP
0cc0
0cc0
0000
ffe0
3070
3030
3010
3010
3080
3080
3f80
3180
3080
3080
3000
3008
3010
3010
3030
ffe0
ENDCHAR
STARTCHAR Igrave
ENCODING 204
SWIDTH 324 0
DWIDTH 7 0
BBX 6 20 1 0
BITMAP
c0
40
20
fc
30
30
30
30
30
30
30
30
30
30
30
30
30
30
30
fc
ENDCHAR
STARTCHAR Iacute
ENCODING 205
SWIDTH 324 0
DWIDTH 7 0
BBX 6 20 1 0
BITMAP
18
30
40
fc
30
30
30
30
30
30
30
30
30
30
30
30
30
30
30
fc
ENDCHAR
STARTCHAR Icircumflex
ENCODING 206
SWIDTH 324 0
DWIDTH 7 0
BBX 6 20 1 0
BITMAP
30
78
84
fc
30
30
30
30
30
30
30
30
30
30
30
30
30
30
30
fc
ENDCHAR
STARTCHAR Idieresis
ENCODING 207
SWIDTH 324 0
DWIDTH 7 0
BBX 6 20 1 0
BITMAP
cc
cc
00
fc
30
30
30
30
30
30
30
30
30
30
30
30
30
30
30
fc
ENDCHAR
STARTCHAR Eth
ENCODING 208
SWIDTH 650 0
DWIDTH 16 0
BBX 14 17 1 0
BITMAP
ffc0
3030
3018
300c
300c
300c
300c
300c
fc0c
300c
300c
300c
3008
3018
3030
3040
ff80
ENDCHAR
STARTCHAR Ntilde
ENCODING 209
SWIDTH 730 0
DWIDTH 18 0
BBX 16 20 2 0
BITMAP
03a0
05c0
0000
f01f
3804
2c04
2c04
2604
2604
2304
2184
2184
20c4
2064
2064
2034
2034
201c
200c
f80c
ENDCHAR
STARTCHAR Ograve
ENCODING 210
SWIDTH 710 0
DWIDTH 18 0
BBX 14 20 2 0
BITMAP
0c00
0600
0100
0fc0
3870
7038
6018
c00c
c00c
c00c
c00c
c00c
c00c
c00c
c00c
c00c
6018
7038
3870
0fc0
ENDCHAR
STARTCHAR Oacute
ENCODING 211
SWIDTH 710 0
DWIDTH 18 0
BBX 14 20 2 0
BITMAP
0180
0300
0400
0fc0
3870
7038
6018
c00c
c00c
c00c
c00c
c00c
c00c
c00c
c00c
c00c
6018
7038
3870
0fc0
ENDCHAR
STARTCHAR Ocircumflex
ENCODING 212
SWIDTH 710 0
DWIDTH 18 0
BBX 14 20 2 0
BITMAP
0300
0480
0840
0fc0
3870
7038
6018
c00c
c00c
c00c
c00c
c00c
c00c
c00c
c00c
c00c
6018
7038
3870
0fc0
ENDCHAR
STARTCHAR Otilde
ENCODING 213
SWIDTH 710 0
DWIDTH 18 0
BBX 14 20 2 0
BITMAP
0740
0b80
0000
0fc0
3870
7038
6018
c00c
c00c
c00c
c00c
c00c
c00c
c00c
c00c
c00c
6018
7038
3870
0fc0
ENDCHAR
STARTCHAR Odieresis
ENCODING 214
SWIDTH 710 0
DWIDTH 18 0
BBX 14 20 2 0
BITMAP
0cc0
0cc0
0000
0fc0
3870
7038
6018
c00c
c00c
c00c
c00c
c00c
c00c
c00c
c00c
c00c
6018
7038
3870
0fc0
ENDCHAR
STARTCHAR multiply
ENCODING 215
SWIDTH 296 0
DWIDTH 7 0
BBX 4 4 2 5
BITMAP
90
60
60
90
ENDCHAR
STARTCHAR Oslash
ENCODING 216
SWIDTH 710 0
DWIDTH 18 0
BBX 15 18 1 -1
BITMAP
07d0
0ff0
1838
306c
604c
6086
c086
c106
c106
c206
c406
c406
6806
680c
300c
1818
2ff0
43c0
ENDCHAR
STARTCHAR Ugrave
ENCODING 217
SWIDTH 656 0
DWIDTH 16 0
BBX 15 20 1 0
BITMAP
0600
0200
0100
fc7e
3008
3008
3008
3008
3008
3008
3008
3008
3008
3008
3008
3008
3018
3010
1830
0fe0
ENDCHAR
STARTCHAR Uacute
ENCODING 218
SWIDTH 656 0
DWIDTH 16 0
BBX 15 20 1 0
BITMAP
00c0
0180
0200
fc7e
3008
3008
3008
3008
3008
3008
3008
3008
3008
3008
3008
3008
3018
3010
1830
0fe0
ENDCHAR
STARTCHAR Ucircumflex
ENCODING 219
SWIDTH 656 0
DWIDTH 16 0
BBX 15 20 1 0
BITMAP
0180
03c0
0660
fc7e
3008
3008
3008
3008
3008
3008
3008
3008
3008
3008
3008
3008
3018
3010
1830
0fe0
ENDCHAR
STARTCHAR Udieresis
ENCODING 220
SWIDTH 656 0
DWIDTH 16 0
BBX 15 20 1 0
BITMAP
0660
0660
0000
fc7e
3008
3008
3008
3008
3008
3008
3008
3008
3008
3008
3008
3008
3018
3010
1830
0fe0
ENDCHAR
STARTCHAR Yacute
ENCODING 221
SWIDTH 653 0
DWIDTH 16 0
BBX 16 20 0 0
BITMAP
0070
0060
0080
fe3f
380c
1818
0c18
0630
0360
03c0
0380
0300
0300
0300
0300
0300
0300
0300
0300
0fe0
ENDCHAR
STARTCHAR Thorn
ENCODING 222
SWIDTH 471 0
DWIDTH 12 0
BBX 10 22 1 -5
BITMAP
fc00
3000
3000
3000
3000
3000
3f80
30c0
30c0
30c0
30c0
30c0
3180
3e00
3000
3000
3000
3000
3000
3000
3000
fc00
ENDCHAR
STARTCHAR germandbls
ENCODING 223
SWIDTH 534 0
DWIDTH 13 0
BBX 11 17 1 0
BITMAP
1f80
31c0
60c0
6060
6060
6060
e0c0
60c0
6380
63c0
60e0
6060
6060
6e60
6e60
6cc0
e7c0
ENDCHAR
STARTCHAR agrave
ENCODING 224
SWIDTH 402 0
DWIDTH 10 0
BBX 10 16 0 0
BITMAP
1c00
0c00
0200
0000
1e00
2700
6300
4300
0300
0f00
3300
6300
c300
c300
e740
7980
ENDCHAR
STARTCHAR aacute
ENCODING 225
SWIDTH 402 0
DWIDTH 10 0
BBX 10 16 0 0
BITMAP
0e00
0c00
1000
0000
1e00
2700
6300
4300
0300
0f00
3300
6300
c300
c300
e740
7980
ENDCHAR
STARTCHAR acircumflex
ENCODING 226
SWIDTH 402 0
DWIDTH 10 0
BBX 10 17 0 0
BITMAP
0c00
1e00
3300
0000
0000
1e00
2700
6300
4300
0300
0f00
3300
6300
c300
c300
e740
7980
ENDCHAR
STARTCHAR atilde
ENCODING 227
SWIDTH 402 0
DWIDTH 10 0
BBX 10 16 0 0
BITMAP
1a00
2c00
0000
0000
1e00
2700
6300
4300
0300
0f00
3300
6300
c300
c300
e740
7980
ENDCHAR
STARTCHAR adieresis
ENCODING 228
SWIDTH 402 0
DWIDTH 10 0
BBX 10 15 0 0
BITMAP
3300
3300
0000
1e00
2700
6300
4300
0300
0f00
3300
6300
c300
c300
e740
7980
ENDCHAR
STARTCHAR aring
ENCODING 229
SWIDTH 402 0
DWIDTH 10 0
BBX 10 17 0 0
BITMAP
0c00
1200
1200
0c00
0000
1e00
2700
6300
4300
0300
0f00
3300
6300
c300
c300
e740
7980
ENDCHAR
STARTCHAR ae
ENCODING 230
SWIDTH 644 0
DWIDTH 16 0
BBX 15 12 0 0
BITMAP
3cf0
4ffc
c70c
c606
07fe
0e00
3600
6600
c702
c784
edfc
78f0
ENDCHAR
STARTCHAR ccedilla
ENCODING 231
SWIDTH 424 0
DWIDTH 11 0
BBX 9 17 1 -5
BITMAP
1e00
2300
4300
c300
c000
c000
c000
c000
c080
e100
7e00
3c00
1800
1e00
0600
3e00
3c00
ENDCHAR
STARTCHAR egrave
ENCODING 232
SWIDTH 457 0
DWIDTH 11 0
BBX 9 16 1 0
BITMAP
3800
1800
0400
0000
3e00
6300
6180
c180
ff80
c000
c000
c000
c080
e180
7f00
3e00
ENDCHAR
STARTCHAR eacute
ENCODING 233
SWIDTH 457 0
DWIDTH 11 0
BBX 9 16 1 0
BITMAP
0700
0600
0800
0000
3e00
6300
6180
c180
ff80
c000
c000
c000
c080
e180
7f00
3e00
ENDCHAR
STARTCHAR ecircumflex
ENCODING 234
SWIDTH 457 0
DWIDTH 11 0
BBX 9 16 1 0
BITMAP
0c00
1e00
3300
0000
3e00
6300
6180
c180
ff80
c000
c000
c000
c080
e180
7f00
3e00
ENDCHAR
STARTCHAR edieresis
ENCODING 235
SWIDTH 457 0
DWIDTH 11 0
BBX 9 15 1 0
BITMAP
3300
3300
0000
3e00
6300
6180
c180
ff80
c000
c000
c000
c080
e180
7f00
3e00
ENDCHAR
STARTCHAR igrave
ENCODING 236
SWIDTH 287 0
DWIDTH 7 0
BBX 6 16 0 0
BITMAP
e0
60
10
00
10
70
30
30
30
30
30
30
30
30
30
fc
ENDCHAR
STARTCHAR iacute
ENCODING 237
SWIDTH 262 0
DWIDTH 7 0
BBX 6 15 0 0
BITMAP
1c
18
20
10
70
70
30
30
30
30
30
30
30
30
fc
ENDCHAR
STARTCHAR icircumflex
ENCODING 238
SWIDTH 262 0
DWIDTH 7 0
BBX 6 16 0 0
BITMAP
10
38
6c
00
10
70
30
30
30
30
30
30
30
30
30
fc
ENDCHAR
STARTCHAR idieresis
ENCODING 239
SWIDTH 262 0
DWIDTH 7 0
BBX 6 15 0 0
BITMAP
cc
cc
00
10
70
30
30
30
30
30
30
30
30
30
fc
ENDCHAR
STARTCHAR eth
ENCODING 240
SWIDTH 452 0
DWIDTH 11 0
BBX 9 16 1 0
BITMAP
3c00
0600
0300
0f80
0300
0700
1f00
3300
6300
6300
c300
c600
c600
cc00
dc00
7800
ENDCHAR
STARTCHAR ntilde
ENCODING 241
SWIDTH 510 0
DWIDTH 13 0
BBX 13 16 0 0
BITMAP
0c80
1300
0000
0000
1780
78c0
3060
3060
3060
3060
3060
3060
3060
3060
3060
fdf8
ENDCHAR
STARTCHAR ograve
ENCODING 242
SWIDTH 482 0
DWIDTH 12 0
BBX 10 16 1 0
BITMAP
1c00
0c00
0200
0000
3f00
6180
e1c0
c0c0
c0c0
c0c0
c0c0
c0c0
c0c0
e1c0
6180
3f00
ENDCHAR
STARTCHAR oacute
ENCODING 243
SWIDTH 482 0
DWIDTH 12 0
BBX 10 16 1 0
BITMAP
0700
0600
0800
0000
3f00
6180
e1c0
c0c0
c0c0
c0c0
c0c0
c0c0
c0c0
e1c0
6180
3f00
ENDCHAR
STARTCHAR ocircumflex
ENCODING 244
SWIDTH 482 0
DWIDTH 12 0
BBX 10 17 1 0
BITMAP
0400
0e00
1b00
0000
0000
3f00
6180
e1c0
c0c0
c0c0
c0c0
c0c0
c0c0
c0c0
e1c0
6180
3f00
ENDCHAR
STARTCHAR otilde
ENCODING 245
SWIDTH 482 0
DWIDTH 12 0
BBX 10 16 1 0
BITMAP
0d00
1600
0000
0000
3f00
6180
e1c0
c0c0
c0c0
c0c0
c0c0
c0c0
c0c0
e1c0
6180
3f00
ENDCHAR
STARTCHAR odieresis
ENCODING 246
SWIDTH 482 0
DWIDTH 12 0
BBX 10 15 1 0
BITMAP
0900
0900
0000
3f00
6180
e1c0
c0c0
c0c0
c0c0
c0c0
c0c0
c0c0
e1c0
6180
3f00
ENDCHAR
STARTCHAR divide
ENCODING 247
SWIDTH 364 0
DWIDTH 9 0
BBX 7 7 1 3
BITMAP
10
10
00
fe
00
10
10
ENDCHAR
STARTCHAR oslash
ENCODING 248
SWIDTH 515 0
DWIDTH 13 0
BBX 10 14 1 -1
BITMAP
00c0
0e80
3f80
6380
c2c0
c6c0
ccc0
c8c0
d8c0
f0c0
6180
7f80
df00
8000
ENDCHAR
STARTCHAR ugrave
ENCODING 249
SWIDTH 524 0
DWIDTH 13 0
BBX 12 16 0 0
BITMAP
1c00
0c00
0200
0000
f1e0
3060
3060
3060
3060
3060
3060
3060
3060
3060
30f0
1f40
ENDCHAR
STARTCHAR uacute
ENCODING 250
SWIDTH 524 0
DWIDTH 13 0
BBX 12 16 0 0
BITMAP
0700
0600
0800
0000
f1e0
3060
3060
3060
3060
3060
3060
3060
3060
3060
30f0
1f40
ENDCHAR
STARTCHAR ucircumflex
ENCODING 251
SWIDTH 524 0
DWIDTH 13 0
BBX 12 17 0 0
BITMAP
0400
0e00
1b00
0000
0000
f1e0
3060
3060
3060
3060
3060
3060
3060
3060
3060
30f0
1f40
ENDCHAR
STARTCHAR udieresis
ENCODING 252
SWIDTH 524 0
DWIDTH 13 0
BBX 12 15 0 0
BITMAP
1980
1980
0000
f1e0
3060
3060
3060
3060
3060
3060
3060
3060
3060
30f0
1f40
ENDCHAR
STARTCHAR yacute
ENCODING 253
SWIDTH 440 0
DWIDTH 11 0
BBX 11 18 0 -2
BITMAP
0380
0300
0400
0000
f3e0
61c0
3180
3180
3100
1b00
1a00
1e00
1c00
0c00
0800
1800
7000
7000
ENDCHAR
STARTCHAR thorn
ENCODING 254
SWIDTH 524 0
DWIDTH 13 0
BBX 12 18 0 -4
BITMAP
fc00
3000
3780
38c0
3060
3060
3030
3030
3030
3030
3030
3060
3860
3fc0
3300
3000
3000
fc00
ENDCHAR
STARTCHAR ydieresis
ENCODING 255
SWIDTH 461 0
DWIDTH 12 0
BBX 11 17 0 -2
BITMAP
1980
1980
0000
f3e0
61c0
3180
3180
3100
1b00
1a00
1e00
1c00
0c00
0800
1800
7000
7000
ENDCHAR
ENDFONT
